# AST/ASF file generated using VICON BodyLanguage
# -----------------------------------------------
:version 1.10
:name VICON
:units
  mass 1.0
  length 0.45
  angle deg
:documentation
   .ast/.asf automatically generated from VICON data using
   VICON BodyBuilder and BodyLanguage model FoxedUp or BRILLIANT.MOD
:root
   order TX TY TZ RX RY RZ
   axis XYZ
   position 0 0 0  
   orientation 0 0 0 
:bonedata
  begin
     id 1 
     name lhipjoint
     direction 0.627457 -0.725269 0.283342 
     length 2.53237 
     axis 0 0 0  XYZ
  end
  begin
     id 2 
     name lfemur
     direction 0.34202 -0.939693 0  
     length 7.32496  
     axis 0 0 20  XYZ
    dof rx ry rz
    limits (-160.0 20.0)
           (-70.0 70.0)
           (-60.0 70.0)
  end
  begin
     id 3 
     name ltibia
     direction 0.34202 -0.939693 0   
     length 7.69674   
     axis 0 0 20   XYZ
    dof rx
    limits (-10.0 170.0)
  end
  begin
     id 4 
     name lfoot
     direction 0.127289 -0.349722 0.928166   
     length 1.8612   
     axis -90 7.62852e-016 20   XYZ
    dof rx rz
    limits (-45.0 90.0)
           (-70.0 20.0)
  end
  begin
     id 5 
     name ltoes
     direction 1.53561e-011 -4.21864e-011 1   
     length 0.925608   
     axis -90 7.62852e-016 20   XYZ
    dof rx
    limits (-90.0 20.0)
  end
  begin
     id 6 
     name rhipjoint
     direction -0.609094 -0.738725 0.288599   
     length 2.48624  
     axis 0 0 0  XYZ 
  end
  begin
     id 7 
     name rfemur
     direction -0.34202 -0.939693 0   
     length 7.44259   
     axis 0 0 -20   XYZ
    dof rx ry rz
    limits (-160.0 20.0)
           (-70.0 70.0)
           (-70.0 60.0)
  end
  begin
     id 8 
     name rtibia
     direction -0.34202 -0.939693 0   
     length 7.7781   
     axis 0 0 -20   XYZ
    dof rx
    limits (-10.0 170.0)
 end
 begin
     id 9 
     name rfoot
     direction -0.107015 -0.294021 0.949789   
     length 2.14741  
     axis -90 -7.62852e-016 -20   XYZ
    dof rx rz
    limits (-45.0 90.0)
           (-20.0 70.0)
  end
  begin
     id 10 
     name rtoes
     direction -1.53497e-011 -4.21924e-011 1   
     length 1.0706   
     axis -90 -7.62852e-016 -20   XYZ
    dof rx
    limits (-90.0 20.0)
  end
  begin
     id 11 
     name lowerback
     direction -0.0142066 0.998112 -0.0597545   
     length 1.86627   
     axis 0 0 0   XYZ
    dof rx ry rz
    limits (-20.0 45.0)
           (-30.0 30.0)
           (-30.0 30.0)
  end
  begin
     id 12 
     name upperback
     direction 0.00547294 0.999744 0.0219437   
     length 1.86272   
     axis 0 0 0   XYZ
    dof rx ry rz
    limits (-20.0 45.0)
           (-30.0 30.0)
           (-30.0 30.0)
  end
  begin
     id 13 
     name thorax
     direction 0.0116162 0.998704 0.0495538   
     length 1.8703   
     axis 0 0 0   XYZ
    dof rx ry rz
    limits (-20.0 45.0)
           (-30.0 30.0)
           (-30.0 30.0)
  end
  begin
     id 14 
     name lowerneck
     direction -0.0106574 0.998739 0.0490586   
     length 1.8074   
     axis 0 0 0   XYZ
    dof rx ry rz
    limits (-20.0 45.0)
           (-30.0 30.0)
           (-30.0 30.0)
  end
  begin
     id 15 
     name upperneck
     direction 0.030527 0.976587 -0.212944   
     length 1.80681   
     axis 0 0 0   XYZ
    dof rx ry rz
    limits (-20.0 45.0)
           (-30.0 30.0)
           (-30.0 30.0)
  end
  begin
     id 16
     name head
     direction 0.00869225 0.997035 -0.0764531  
     length 1.8313  
     axis 0 0 0   XYZ
    dof rx ry rz
    limits (-20.0 45.0)
           (-30.0 30.0)
           (-30.0 30.0)
  end
  begin
     id 17 
     name lclavicle
     direction 0.915958 0.399447 0.0382386  
     length 3.78965  
     axis 0 0 0   XYZ
    dof ry rz
    limits (-20.0 10.0)
           (0.0 20.0)
  end
  begin
     id 18 
     name lhumerus
     direction 1 -4.48967e-011 3.19303e-027   
     length 4.78095   
     axis -180 -30 -90   XYZ
    dof rx ry rz
    limits (-60.0 90.0)
           (-90.0 90.0)
           (-90.0 90.0)
  end
  begin
     id 19
     name lradius
     direction 1 -4.48967e-011 -3.77974e-027   
     length 3.58615   
     axis -180 -30 -90   XYZ
    dof rx
    limits (-10.0 170.0)
  end
  begin
     id 20
     name lwrist
     direction 1 -4.48927e-011 1.2807e-027   
     length 1.79307   
     axis 1.91374e-015 90 90   XYZ
    dof ry
    limits (-180.0 0.0)
 end
  begin
     id 21 
     name lhand
     direction 1 -4.49036e-011 2.5614e-027   
     length 0.659812   
     axis -1.63439e-015 90 90   XYZ
    dof rx rz
    limits (-90.0 90.0)
           (-45.0 45.0)
  end
  begin
     id 22 
     name lfingers
     direction 1 -4.49052e-011 5.1228e-027   
     length 0.531957   
     axis -3.26879e-015 90 90   XYZ
    dof rx
    limits (0.0 90.0)
  end
  begin
     id 23
     name lthumb
     direction 0.707107 -6.35012e-011 0.707107   
     length 0.763787   
     axis -90 45 2.85299e-015   XYZ
    dof rx rz
    limits (-45.0 45.0)
           (-45.0 45.0)
  end
  begin
     id 24 
     name rclavicle
     direction -0.895351 0.435135 0.0948887   
     length 3.70497  
     axis 0 0 0   XYZ 
    dof ry rz
    limits (-10.0 20.0)
           (-20.0 0.0)
  end
  begin
     id 25 
     name rhumerus
     direction -1 -4.48971e-011 2.38946e-027  
     length 4.48913   
     axis -180 30 90   XYZ
    dof rx ry rz
    limits (-90.0 60.0)
           (-90.0 90.0)
           (-90.0 90.0)
  end
  begin
     id 26 
     name rradius
     direction -1 -4.4895e-011 4.38668e-027   
     length 3.7051   
     axis -180 30 90   XYZ
    dof rx
    limits (-10.0 170.0)
  end
  begin
     id 27 
     name rwrist
     direction -1 -4.49007e-011 1.2807e-027   
     length 1.85255   
     axis 1.91374e-015 -90 -90   XYZ
    dof ry
    limits (-180.0 0.0)
  end
  begin
     id 28
     name rhand
     direction -1 -4.48851e-011 2.5614e-027   
     length 0.449136   
     axis -1.63439e-015 -90 -90   XYZ
    dof rx rz
    limits (-90.0 90.0)
           (-45.0 45.0)
  end
  begin
     id 29
     name rfingers
     direction -1 -4.49128e-011 5.1228e-027   
     length 0.362105   
     axis -3.26879e-015 -90 -90   XYZ
    dof rx
    limits (0.0 90.0)
  end
  begin
     id 30
     name rthumb
     direction -0.707107 -6.34851e-011 0.707107   
     length 0.519912   
     axis -90 -45 -2.85299e-015   XYZ
    dof rx rz
    limits (-45.0 45.0)
           (-45.0 45.0)
  end
:hierarchy
  begin
    root lhipjoint rhipjoint lowerback
    lhipjoint lfemur
    lfemur ltibia
    ltibia lfoot
    lfoot ltoes
    rhipjoint rfemur
    rfemur rtibia
    rtibia rfoot
    rfoot rtoes
    lowerback upperback
    upperback thorax
    thorax lowerneck lclavicle rclavicle
    lowerneck upperneck
    upperneck head
    lclavicle lhumerus
    lhumerus lradius
    lradius lwrist
    lwrist lhand lthumb
    lhand lfingers
    rclavicle rhumerus
    rhumerus rradius
    rradius rwrist
    rwrist rhand rthumb
    rhand rfingers
  end

#!OML:ASF I:\Actors\actors\Patient Classification 2\Patient 1\Session 1\actor1.ASF
:FULLY-SPECIFIED
:DEGREES
22
root -0.660747 18.6779 5.77766 2.46804 -3.26913 -1.78399
lowerback 0.580072 1.45781 0.0291394
upperback -1.6877 1.94318 -0.119705
thorax -2.04874 0.969101 -0.184625
lowerneck -11.8117 -2.64975 -0.711528
upperneck 25.2587 -4.36053 2.87989
head 10.057 -1.75924 0.604467
rclavicle -6.92019e-015 3.97569e-015
rhumerus -49.86 -3.4928 -86.9276
rradius 44.0874
rwrist 12.742
rhand -10.6879 -29.6195
rfingers 7.12502
rthumb 15.3212 -59.0319
lclavicle -6.92019e-015 3.97569e-015
lhumerus -40.586 0.689719 90.0498
lradius 36.818
lwrist -12.1803
lhand -3.0263 -25.2968
lfingers 7.12502
lthumb 22.6887 3.38941
rfemur 0 0 0
rtibia 0
rfoot 0 0
rtoes 0
lfemur -3.44818 -6.6633 -12.9588
ltibia 20.7224
lfoot -26.1142 18.5244
ltoes -53.8439
23
root -0.659918 18.6784 5.77854 2.48013 -3.29247 -1.74252
lowerback 0.553155 1.46218 0.00496876
upperback -1.68926 1.9483 -0.137665
thorax -2.03539 0.971918 -0.188874
lowerneck -11.806 -2.65031 -0.739933
upperneck 25.2847 -4.36439 2.91163
head 10.0669 -1.7598 0.619989
rclavicle -1.88845e-014 7.55382e-015
rhumerus -49.8694 -3.51195 -86.9259
rradius 44.1387
rwrist 12.8989
rhand -9.68668 -30.0863
rfingers 7.12502
rthumb 16.2853 -59.4225
lclavicle -1.88845e-014 7.55382e-015
lhumerus -40.5953 0.705348 90.0474
lradius 36.8451
lwrist -12.1712
lhand -3.03536 -25.228
lfingers 7.12502
lthumb 22.68 3.45926
rfemur 0 0 0
rtibia 0
rfoot 0 0
rtoes 0
lfemur -3.44617 -6.61563 -13.0043
ltibia 20.7173
lfoot -26.1227 18.4637
ltoes -53.8088
24
root -0.659531 18.6792 5.77862 2.50054 -3.30525 -1.72993
lowerback 0.531667 1.46339 -0.00143827
upperback -1.69352 1.94976 -0.140691
thorax -2.0278 0.972736 -0.18788
lowerneck -11.7537 -2.65469 -0.758811
upperneck 25.241 -4.3679 2.9252
head 10.0418 -1.76299 0.628291
rclavicle -2.53761e-015 1.98785e-015
rhumerus -49.8873 -3.51123 -86.9282
rradius 44.207
rwrist 13.0121
rhand -8.68705 -30.6753
rfingers 7.12502
rthumb 17.2477 -59.9299
lclavicle -2.53761e-015 1.98785e-015
lhumerus -40.59 0.717648 90.0541
lradius 36.8457
lwrist -12.1534
lhand -3.03672 -25.1908
lfingers 7.12502
lthumb 22.6787 3.49656
rfemur 0 0 0
rtibia 0
rfoot 0 0
rtoes 0
lfemur -3.46201 -6.58717 -13.0173
ltibia 20.7225
lfoot -26.1334 18.4402
ltoes -53.8213
25
root -0.659947 18.6798 5.77815 2.51496 -3.31604 -1.74663
lowerback 0.529069 1.4597 0.00333427
upperback -1.69601 1.9452 -0.124536
thorax -2.02931 0.970525 -0.173881
lowerneck -11.6956 -2.64139 -0.756519
upperneck 25.168 -4.33961 2.89998
head 10.0029 -1.75438 0.623399
rclavicle -1.35671e-014 -5.1684e-015
rhumerus -49.8818 -3.49159 -86.9226
rradius 44.1471
rwrist 12.8645
rhand -9.56441 -30.4775
rfingers 7.12502
rthumb 16.4031 -59.8039
lclavicle -1.35671e-014 -5.1684e-015
lhumerus -40.5699 0.752951 90.0666
lradius 36.8143
lwrist -12.1616
lhand -3.03827 -25.1871
lfingers 7.12502
lthumb 22.6772 3.50049
rfemur 0 0 0
rtibia 0
rfoot 0 0
rtoes 0
lfemur -3.48101 -6.59745 -13.0014
ltibia 20.7324
lfoot -26.1238 18.4931
ltoes -53.8928
26
root -0.660273 18.68 5.77817 2.51813 -3.32262 -1.75515
lowerback 0.52561 1.45053 0.00201288
upperback -1.6899 1.93312 -0.115005
thorax -2.02149 0.964606 -0.162909
lowerneck -11.6758 -2.62117 -0.754142
upperneck 25.1338 -4.30797 2.89218
head 9.98575 -1.74118 0.624413
rclavicle -1.54307e-014 1.43125e-014
rhumerus -49.8634 -3.46282 -86.9244
rradius 44.0879
rwrist 12.7313
rhand -10.4631 -30.161
rfingers 7.12502
rthumb 15.5377 -59.5567
lclavicle -1.54307e-014 1.43125e-014
lhumerus -40.5102 0.876211 90.0338
lradius 36.7349
lwrist -12.2614
lhand -3.05748 -25.2462
lfingers 7.12502
lthumb 22.6588 3.44368
rfemur 0 0 0
rtibia 0
rfoot 0 0
rtoes 0
lfemur -3.49057 -6.61903 -12.9927
ltibia 20.7434
lfoot -26.1542 18.5148
ltoes -53.8566
27
root -0.660145 18.6796 5.77827 2.52417 -3.31969 -1.76354
lowerback 0.519403 1.455 0.0257265
upperback -1.68442 1.93923 -0.127904
thorax -2.01113 0.967178 -0.189223
lowerneck -11.6806 -2.62343 -0.706433
upperneck 25.1272 -4.31173 2.85472
head 9.98235 -1.7427 0.602717
rclavicle -1.09766e-014 -3.97569e-016
rhumerus -49.8618 -3.51619 -86.9107
rradius 44.0882
rwrist 12.7707
rhand -10.4278 -30.0945
rfingers 7.12502
rthumb 15.5717 -59.4877
lclavicle -1.09766e-014 -3.97569e-016
lhumerus -40.4576 0.891385 90.0107
lradius 36.6872
lwrist -12.317
lhand -3.1194 -25.283
lfingers 7.12502
lthumb 22.5994 3.41407
rfemur 0 0 0
rtibia 0
rfoot 0 0
rtoes 0
lfemur -3.50577 -6.57725 -12.9741
ltibia 20.7489
lfoot -26.1591 18.4654
ltoes -53.8234
